<svg xmlns="http://www.w3.org/2000/svg" width="1900" height="1150" viewBox="0 0 1900 1150">
<defs>
<marker id="arrow" markerWidth="10" markerHeight="10" refX="9" refY="5" orient="auto" markerUnits="strokeWidth">
  <path d="M 0 0 L 10 5 L 0 10 z" fill="#3c4557" />
</marker>
</defs>
<text x="950.0" y="50.0" text-anchor="middle" font-family="Arial" font-size="40" fill="#1f2633" font-weight="700">Improved Rotated Vehicle Detection Network</text>
<text x="950.0" y="74.8" text-anchor="middle" font-family="Arial" font-size="21" fill="#5c6575" font-weight="400">Backbone - Neck - Rotated Head with Feature Complementary Mapping and Multi-Kernel Perception</text>
<rect x="85.0" y="88.0" width="85.0" height="32.0" rx="12.0" ry="12.0" fill="#f8efb6" stroke="#f8efb6" stroke-width="0" />
<text x="127.5" y="110.0" text-anchor="middle" font-family="Arial" font-size="18" fill="#1f2633" font-weight="400">
<tspan x="127.5" dy="0">FCM</tspan>
</text>
<text x="185.0" y="103.4" text-anchor="start" font-family="Arial" font-size="18" fill="#1f2633" font-weight="400">proposed feature enhancement</text>
<rect x="420.0" y="88.0" width="85.0" height="32.0" rx="12.0" ry="12.0" fill="#f4d5b9" stroke="#f4d5b9" stroke-width="0" />
<text x="462.5" y="110.0" text-anchor="middle" font-family="Arial" font-size="18" fill="#1f2633" font-weight="400">
<tspan x="462.5" dy="0">MKP</tspan>
</text>
<text x="520.0" y="103.4" text-anchor="start" font-family="Arial" font-size="18" fill="#1f2633" font-weight="400">proposed multi-kernel unit</text>
<rect x="760.0" y="88.0" width="100.0" height="32.0" rx="12.0" ry="12.0" fill="#ffd9ba" stroke="#ffd9ba" stroke-width="0" />
<text x="810.0" y="110.0" text-anchor="middle" font-family="Arial" font-size="18" fill="#1f2633" font-weight="400">
<tspan x="810.0" dy="0">Conv/CBS</tspan>
</text>
<text x="875.0" y="103.4" text-anchor="start" font-family="Arial" font-size="18" fill="#1f2633" font-weight="400">basic convolution block</text>
<rect x="20.0" y="140.0" width="1050.0" height="890.0" rx="28.0" ry="28.0" fill="#fafbff" stroke="#dde3ef" stroke-width="3" />
<rect x="55.0" y="190.0" width="195.0" height="760.0" rx="26.0" ry="26.0" fill="#eef3ff" stroke="#cfd8eb" stroke-width="3" />
<rect x="310.0" y="240.0" width="395.0" height="520.0" rx="26.0" ry="26.0" fill="#f4f0ff" stroke="#d8d5ec" stroke-width="3" />
<rect x="760.0" y="240.0" width="270.0" height="520.0" rx="26.0" ry="26.0" fill="#fff4ee" stroke="#e7d2c5" stroke-width="3" />
<text x="152.0" y="222.4" text-anchor="middle" font-family="Arial" font-size="28" fill="#1f2633" font-weight="700">Backbone</text>
<text x="507.0" y="272.4" text-anchor="middle" font-family="Arial" font-size="28" fill="#1f2633" font-weight="700">Neck</text>
<text x="895.0" y="272.4" text-anchor="middle" font-family="Arial" font-size="28" fill="#1f2633" font-weight="700">Rotated Head</text>
<rect x="90" y="960" width="60" height="60" fill="#539bf5" />
<rect x="102" y="948" width="60" height="60" fill="#57d3ca" />
<rect x="114" y="936" width="60" height="60" fill="#ff5c5c" />
<text x="150.0" y="1048.0" text-anchor="middle" font-family="Arial" font-size="20" fill="#1f2633" font-weight="400">Input Image</text>
<line x1="152.0" y1="955.0" x2="152.0" y2="950.0" stroke="#3c4557" stroke-width="3" marker-end="url(#arrow)" />
<rect x="105.0" y="875.0" width="100.0" height="44.0" rx="12.0" ry="12.0" fill="#ffd9ba" stroke="#ffd9ba" stroke-width="0" />
<text x="155.0" y="904.0" text-anchor="middle" font-family="Arial" font-size="21" fill="#1f2633" font-weight="400">
<tspan x="155.0" dy="0">CBS</tspan>
</text>
<text x="90.0" y="895.4" text-anchor="end" font-family="Arial" font-size="18" fill="#1f2633" font-weight="400">0</text>
<line x1="155.0" y1="875.0" x2="155.0" y2="855.0" stroke="#3c4557" stroke-width="3" marker-end="url(#arrow)" />
<rect x="105.0" y="811.0" width="100.0" height="44.0" rx="12.0" ry="12.0" fill="#ffd9ba" stroke="#ffd9ba" stroke-width="0" />
<text x="155.0" y="840.0" text-anchor="middle" font-family="Arial" font-size="21" fill="#1f2633" font-weight="400">
<tspan x="155.0" dy="0">CBS</tspan>
</text>
<text x="90.0" y="831.4" text-anchor="end" font-family="Arial" font-size="18" fill="#1f2633" font-weight="400">1</text>
<line x1="155.0" y1="811.0" x2="155.0" y2="791.0" stroke="#3c4557" stroke-width="3" marker-end="url(#arrow)" />
<rect x="105.0" y="747.0" width="100.0" height="44.0" rx="12.0" ry="12.0" fill="#f8efb6" stroke="#f8efb6" stroke-width="0" />
<text x="155.0" y="776.0" text-anchor="middle" font-family="Arial" font-size="21" fill="#1f2633" font-weight="400">
<tspan x="155.0" dy="0">FCM</tspan>
</text>
<text x="90.0" y="767.4" text-anchor="end" font-family="Arial" font-size="18" fill="#1f2633" font-weight="400">2</text>
<line x1="155.0" y1="747.0" x2="155.0" y2="727.0" stroke="#3c4557" stroke-width="3" marker-end="url(#arrow)" />
<rect x="105.0" y="683.0" width="100.0" height="44.0" rx="12.0" ry="12.0" fill="#dce8ff" stroke="#dce8ff" stroke-width="0" />
<text x="155.0" y="712.0" text-anchor="middle" font-family="Arial" font-size="21" fill="#1f2633" font-weight="400">
<tspan x="155.0" dy="0">Conv</tspan>
</text>
<text x="90.0" y="703.4" text-anchor="end" font-family="Arial" font-size="18" fill="#1f2633" font-weight="400">3</text>
<line x1="155.0" y1="683.0" x2="155.0" y2="663.0" stroke="#3c4557" stroke-width="3" marker-end="url(#arrow)" />
<rect x="105.0" y="619.0" width="100.0" height="44.0" rx="12.0" ry="12.0" fill="#f8efb6" stroke="#f8efb6" stroke-width="0" />
<text x="155.0" y="648.0" text-anchor="middle" font-family="Arial" font-size="21" fill="#1f2633" font-weight="400">
<tspan x="155.0" dy="0">FCM</tspan>
</text>
<text x="90.0" y="639.4" text-anchor="end" font-family="Arial" font-size="18" fill="#1f2633" font-weight="400">4</text>
<line x1="155.0" y1="619.0" x2="155.0" y2="599.0" stroke="#3c4557" stroke-width="3" marker-end="url(#arrow)" />
<rect x="105.0" y="555.0" width="100.0" height="44.0" rx="12.0" ry="12.0" fill="#dce8ff" stroke="#dce8ff" stroke-width="0" />
<text x="155.0" y="584.0" text-anchor="middle" font-family="Arial" font-size="21" fill="#1f2633" font-weight="400">
<tspan x="155.0" dy="0">Conv</tspan>
</text>
<text x="90.0" y="575.4" text-anchor="end" font-family="Arial" font-size="18" fill="#1f2633" font-weight="400">5</text>
<line x1="155.0" y1="555.0" x2="155.0" y2="535.0" stroke="#3c4557" stroke-width="3" marker-end="url(#arrow)" />
<rect x="105.0" y="491.0" width="100.0" height="44.0" rx="12.0" ry="12.0" fill="#f8efb6" stroke="#f8efb6" stroke-width="0" />
<text x="155.0" y="520.0" text-anchor="middle" font-family="Arial" font-size="21" fill="#1f2633" font-weight="400">
<tspan x="155.0" dy="0">FCM</tspan>
</text>
<text x="90.0" y="511.4" text-anchor="end" font-family="Arial" font-size="18" fill="#1f2633" font-weight="400">6</text>
<line x1="155.0" y1="491.0" x2="155.0" y2="471.0" stroke="#3c4557" stroke-width="3" marker-end="url(#arrow)" />
<rect x="105.0" y="427.0" width="100.0" height="44.0" rx="12.0" ry="12.0" fill="#f4d5b9" stroke="#f4d5b9" stroke-width="0" />
<text x="155.0" y="456.0" text-anchor="middle" font-family="Arial" font-size="21" fill="#1f2633" font-weight="400">
<tspan x="155.0" dy="0">MKP</tspan>
</text>
<text x="90.0" y="447.4" text-anchor="end" font-family="Arial" font-size="18" fill="#1f2633" font-weight="400">7</text>
<line x1="155.0" y1="427.0" x2="155.0" y2="407.0" stroke="#3c4557" stroke-width="3" marker-end="url(#arrow)" />
<rect x="105.0" y="363.0" width="100.0" height="44.0" rx="12.0" ry="12.0" fill="#f8efb6" stroke="#f8efb6" stroke-width="0" />
<text x="155.0" y="392.0" text-anchor="middle" font-family="Arial" font-size="21" fill="#1f2633" font-weight="400">
<tspan x="155.0" dy="0">FCM</tspan>
</text>
<text x="90.0" y="383.4" text-anchor="end" font-family="Arial" font-size="18" fill="#1f2633" font-weight="400">8</text>
<line x1="155.0" y1="363.0" x2="155.0" y2="343.0" stroke="#3c4557" stroke-width="3" marker-end="url(#arrow)" />
<rect x="105.0" y="299.0" width="100.0" height="44.0" rx="12.0" ry="12.0" fill="#dce8ff" stroke="#dce8ff" stroke-width="0" />
<text x="155.0" y="328.0" text-anchor="middle" font-family="Arial" font-size="21" fill="#1f2633" font-weight="400">
<tspan x="155.0" dy="0">Conv</tspan>
</text>
<text x="90.0" y="319.4" text-anchor="end" font-family="Arial" font-size="18" fill="#1f2633" font-weight="400">9</text>
<line x1="155.0" y1="299.0" x2="155.0" y2="279.0" stroke="#3c4557" stroke-width="3" marker-end="url(#arrow)" />
<rect x="105.0" y="235.0" width="100.0" height="44.0" rx="12.0" ry="12.0" fill="#d8f1f1" stroke="#d8f1f1" stroke-width="0" />
<text x="155.0" y="264.0" text-anchor="middle" font-family="Arial" font-size="21" fill="#1f2633" font-weight="400">
<tspan x="155.0" dy="0">SPPF</tspan>
</text>
<text x="90.0" y="255.4" text-anchor="end" font-family="Arial" font-size="18" fill="#1f2633" font-weight="400">10</text>
<rect x="350.0" y="680.0" width="110.0" height="44.0" rx="12.0" ry="12.0" fill="#e8c6f2" stroke="#e8c6f2" stroke-width="0" />
<text x="405.0" y="709.0" text-anchor="middle" font-family="Arial" font-size="21" fill="#1f2633" font-weight="400">
<tspan x="405.0" dy="0">C2f</tspan>
</text>
<text x="334.0" y="700.4" text-anchor="end" font-family="Arial" font-size="18" fill="#1f2633" font-weight="400">11</text>
<rect x="350.0" y="605.0" width="110.0" height="44.0" rx="12.0" ry="12.0" fill="#f5cbd3" stroke="#f5cbd3" stroke-width="0" />
<text x="405.0" y="634.0" text-anchor="middle" font-family="Arial" font-size="21" fill="#1f2633" font-weight="400">
<tspan x="405.0" dy="0">Concat</tspan>
</text>
<text x="334.0" y="625.4" text-anchor="end" font-family="Arial" font-size="18" fill="#1f2633" font-weight="400">12</text>
<rect x="350.0" y="530.0" width="110.0" height="44.0" rx="12.0" ry="12.0" fill="#cceef1" stroke="#cceef1" stroke-width="0" />
<text x="405.0" y="559.0" text-anchor="middle" font-family="Arial" font-size="21" fill="#1f2633" font-weight="400">
<tspan x="405.0" dy="0">UP</tspan>
</text>
<text x="334.0" y="550.4" text-anchor="end" font-family="Arial" font-size="18" fill="#1f2633" font-weight="400">13</text>
<rect x="350.0" y="420.0" width="110.0" height="44.0" rx="12.0" ry="12.0" fill="#e8c6f2" stroke="#e8c6f2" stroke-width="0" />
<text x="405.0" y="449.0" text-anchor="middle" font-family="Arial" font-size="21" fill="#1f2633" font-weight="400">
<tspan x="405.0" dy="0">C2f</tspan>
</text>
<text x="334.0" y="440.4" text-anchor="end" font-family="Arial" font-size="18" fill="#1f2633" font-weight="400">14</text>
<rect x="350.0" y="345.0" width="110.0" height="44.0" rx="12.0" ry="12.0" fill="#f5cbd3" stroke="#f5cbd3" stroke-width="0" />
<text x="405.0" y="374.0" text-anchor="middle" font-family="Arial" font-size="21" fill="#1f2633" font-weight="400">
<tspan x="405.0" dy="0">Concat</tspan>
</text>
<text x="334.0" y="365.4" text-anchor="end" font-family="Arial" font-size="18" fill="#1f2633" font-weight="400">15</text>
<rect x="350.0" y="270.0" width="110.0" height="44.0" rx="12.0" ry="12.0" fill="#cceef1" stroke="#cceef1" stroke-width="0" />
<text x="405.0" y="299.0" text-anchor="middle" font-family="Arial" font-size="21" fill="#1f2633" font-weight="400">
<tspan x="405.0" dy="0">UP</tspan>
</text>
<text x="334.0" y="290.4" text-anchor="end" font-family="Arial" font-size="18" fill="#1f2633" font-weight="400">16</text>
<rect x="585.0" y="680.0" width="110.0" height="44.0" rx="12.0" ry="12.0" fill="#e8c6f2" stroke="#e8c6f2" stroke-width="0" />
<text x="640.0" y="709.0" text-anchor="middle" font-family="Arial" font-size="21" fill="#1f2633" font-weight="400">
<tspan x="640.0" dy="0">C2f</tspan>
</text>
<text x="569.0" y="700.4" text-anchor="end" font-family="Arial" font-size="18" fill="#1f2633" font-weight="400">22</text>
<rect x="585.0" y="605.0" width="110.0" height="44.0" rx="12.0" ry="12.0" fill="#f5cbd3" stroke="#f5cbd3" stroke-width="0" />
<text x="640.0" y="634.0" text-anchor="middle" font-family="Arial" font-size="21" fill="#1f2633" font-weight="400">
<tspan x="640.0" dy="0">Concat</tspan>
</text>
<text x="569.0" y="625.4" text-anchor="end" font-family="Arial" font-size="18" fill="#1f2633" font-weight="400">21</text>
<rect x="585.0" y="530.0" width="110.0" height="44.0" rx="12.0" ry="12.0" fill="#ffd9ba" stroke="#ffd9ba" stroke-width="0" />
<text x="640.0" y="559.0" text-anchor="middle" font-family="Arial" font-size="21" fill="#1f2633" font-weight="400">
<tspan x="640.0" dy="0">Conv</tspan>
</text>
<text x="569.0" y="550.4" text-anchor="end" font-family="Arial" font-size="18" fill="#1f2633" font-weight="400">20</text>
<rect x="585.0" y="420.0" width="110.0" height="44.0" rx="12.0" ry="12.0" fill="#e8c6f2" stroke="#e8c6f2" stroke-width="0" />
<text x="640.0" y="449.0" text-anchor="middle" font-family="Arial" font-size="21" fill="#1f2633" font-weight="400">
<tspan x="640.0" dy="0">C2f</tspan>
</text>
<text x="569.0" y="440.4" text-anchor="end" font-family="Arial" font-size="18" fill="#1f2633" font-weight="400">19</text>
<rect x="585.0" y="345.0" width="110.0" height="44.0" rx="12.0" ry="12.0" fill="#f5cbd3" stroke="#f5cbd3" stroke-width="0" />
<text x="640.0" y="374.0" text-anchor="middle" font-family="Arial" font-size="21" fill="#1f2633" font-weight="400">
<tspan x="640.0" dy="0">Concat</tspan>
</text>
<text x="569.0" y="365.4" text-anchor="end" font-family="Arial" font-size="18" fill="#1f2633" font-weight="400">18</text>
<rect x="585.0" y="270.0" width="110.0" height="44.0" rx="12.0" ry="12.0" fill="#ffd9ba" stroke="#ffd9ba" stroke-width="0" />
<text x="640.0" y="299.0" text-anchor="middle" font-family="Arial" font-size="21" fill="#1f2633" font-weight="400">
<tspan x="640.0" dy="0">Conv</tspan>
</text>
<text x="569.0" y="290.4" text-anchor="end" font-family="Arial" font-size="18" fill="#1f2633" font-weight="400">17</text>
<line x1="405.0" y1="649.0" x2="405.0" y2="605.0" stroke="#3c4557" stroke-width="3" marker-end="url(#arrow)" />
<line x1="405.0" y1="574.0" x2="405.0" y2="530.0" stroke="#3c4557" stroke-width="3" marker-end="url(#arrow)" />
<line x1="405.0" y1="464.0" x2="405.0" y2="420.0" stroke="#3c4557" stroke-width="3" marker-end="url(#arrow)" />
<line x1="405.0" y1="389.0" x2="405.0" y2="345.0" stroke="#3c4557" stroke-width="3" marker-end="url(#arrow)" />
<line x1="640.0" y1="314.0" x2="640.0" y2="345.0" stroke="#3c4557" stroke-width="3" marker-end="url(#arrow)" />
<line x1="640.0" y1="389.0" x2="640.0" y2="420.0" stroke="#3c4557" stroke-width="3" marker-end="url(#arrow)" />
<line x1="640.0" y1="499.0" x2="640.0" y2="530.0" stroke="#3c4557" stroke-width="3" marker-end="url(#arrow)" />
<line x1="640.0" y1="574.0" x2="640.0" y2="605.0" stroke="#3c4557" stroke-width="3" marker-end="url(#arrow)" />
<line x1="640.0" y1="649.0" x2="640.0" y2="680.0" stroke="#3c4557" stroke-width="3" marker-end="url(#arrow)" />
<line x1="205.0" y1="642.0" x2="350.0" y2="627.0" stroke="#3c4557" stroke-width="3" marker-end="url(#arrow)" />
<line x1="205.0" y1="508.0" x2="350.0" y2="367.0" stroke="#3c4557" stroke-width="3" marker-end="url(#arrow)" />
<line x1="205.0" y1="374.0" x2="350.0" y2="697.0" stroke="#3c4557" stroke-width="3" marker-end="url(#arrow)" />
<line x1="205.0" y1="244.0" x2="585.0" y2="702.0" stroke="#3c4557" stroke-width="3" marker-end="url(#arrow)" />
<line x1="460.0" y1="702.0" x2="585.0" y2="702.0" stroke="#3c4557" stroke-width="3" marker-end="url(#arrow)" />
<line x1="460.0" y1="442.0" x2="585.0" y2="367.0" stroke="#3c4557" stroke-width="3" marker-end="url(#arrow)" />
<line x1="460.0" y1="292.0" x2="760.0" y2="292.0" stroke="#3c4557" stroke-width="3" marker-end="url(#arrow)" />
<line x1="695.0" y1="442.0" x2="760.0" y2="442.0" stroke="#3c4557" stroke-width="3" marker-end="url(#arrow)" />
<line x1="695.0" y1="702.0" x2="760.0" y2="702.0" stroke="#3c4557" stroke-width="3" marker-end="url(#arrow)" />
<line x1="205.0" y1="180.0" x2="350.0" y2="292.0" stroke="#3c4557" stroke-width="3" marker-end="url(#arrow)" />
<text x="785.0" y="639.4" text-anchor="start" font-family="Arial" font-size="18" fill="#5c6575" font-weight="400">P3</text>
<rect x="790.0" y="650.0" width="85.0" height="40.0" rx="12.0" ry="12.0" fill="#ffd9ba" stroke="#ffd9ba" stroke-width="0" />
<text x="832.5" y="676.7" text-anchor="middle" font-family="Arial" font-size="20" fill="#1f2633" font-weight="400">
<tspan x="832.5" dy="0">CBS</tspan>
</text>
<rect x="900.0" y="650.0" width="85.0" height="40.0" rx="12.0" ry="12.0" fill="#ffd9ba" stroke="#ffd9ba" stroke-width="0" />
<text x="942.5" y="676.7" text-anchor="middle" font-family="Arial" font-size="20" fill="#1f2633" font-weight="400">
<tspan x="942.5" dy="0">CBS</tspan>
</text>
<rect x="1000.0" y="650.0" width="88.0" height="40.0" rx="12.0" ry="12.0" fill="#ebe6d8" stroke="#ebe6d8" stroke-width="0" />
<text x="1044.0" y="676.0" text-anchor="middle" font-family="Arial" font-size="18" fill="#1f2633" font-weight="400">
<tspan x="1044.0" dy="0">Conv2d</tspan>
</text>
<line x1="760.0" y1="670.0" x2="790.0" y2="670.0" stroke="#3c4557" stroke-width="3" marker-end="url(#arrow)" />
<line x1="875.0" y1="670.0" x2="900.0" y2="670.0" stroke="#3c4557" stroke-width="3" marker-end="url(#arrow)" />
<line x1="985.0" y1="670.0" x2="1000.0" y2="670.0" stroke="#3c4557" stroke-width="3" marker-end="url(#arrow)" />
<rect x="790.0" y="595.0" width="85.0" height="40.0" rx="12.0" ry="12.0" fill="#dcecb9" stroke="#dcecb9" stroke-width="0" />
<text x="832.5" y="621.7" text-anchor="middle" font-family="Arial" font-size="20" fill="#1f2633" font-weight="400">
<tspan x="832.5" dy="0">DSC</tspan>
</text>
<rect x="900.0" y="595.0" width="85.0" height="40.0" rx="12.0" ry="12.0" fill="#dcecb9" stroke="#dcecb9" stroke-width="0" />
<text x="942.5" y="621.7" text-anchor="middle" font-family="Arial" font-size="20" fill="#1f2633" font-weight="400">
<tspan x="942.5" dy="0">DSC</tspan>
</text>
<rect x="1000.0" y="595.0" width="88.0" height="40.0" rx="12.0" ry="12.0" fill="#ebe6d8" stroke="#ebe6d8" stroke-width="0" />
<text x="1044.0" y="621.0" text-anchor="middle" font-family="Arial" font-size="18" fill="#1f2633" font-weight="400">
<tspan x="1044.0" dy="0">Conv2d</tspan>
</text>
<line x1="760.0" y1="615.0" x2="790.0" y2="615.0" stroke="#3c4557" stroke-width="3" marker-end="url(#arrow)" />
<line x1="875.0" y1="615.0" x2="900.0" y2="615.0" stroke="#3c4557" stroke-width="3" marker-end="url(#arrow)" />
<line x1="985.0" y1="615.0" x2="1000.0" y2="615.0" stroke="#3c4557" stroke-width="3" marker-end="url(#arrow)" />
<rect x="790.0" y="540.0" width="85.0" height="40.0" rx="12.0" ry="12.0" fill="#ffd9ba" stroke="#ffd9ba" stroke-width="0" />
<text x="832.5" y="566.7" text-anchor="middle" font-family="Arial" font-size="20" fill="#1f2633" font-weight="400">
<tspan x="832.5" dy="0">CBS</tspan>
</text>
<rect x="900.0" y="540.0" width="85.0" height="40.0" rx="12.0" ry="12.0" fill="#ffd9ba" stroke="#ffd9ba" stroke-width="0" />
<text x="942.5" y="566.7" text-anchor="middle" font-family="Arial" font-size="20" fill="#1f2633" font-weight="400">
<tspan x="942.5" dy="0">CBS</tspan>
</text>
<rect x="1000.0" y="540.0" width="88.0" height="40.0" rx="12.0" ry="12.0" fill="#ebe6d8" stroke="#ebe6d8" stroke-width="0" />
<text x="1044.0" y="566.0" text-anchor="middle" font-family="Arial" font-size="18" fill="#1f2633" font-weight="400">
<tspan x="1044.0" dy="0">Conv2d</tspan>
</text>
<line x1="760.0" y1="560.0" x2="790.0" y2="560.0" stroke="#3c4557" stroke-width="3" marker-end="url(#arrow)" />
<line x1="875.0" y1="560.0" x2="900.0" y2="560.0" stroke="#3c4557" stroke-width="3" marker-end="url(#arrow)" />
<line x1="985.0" y1="560.0" x2="1000.0" y2="560.0" stroke="#3c4557" stroke-width="3" marker-end="url(#arrow)" />
<text x="1100.0" y="669.2" text-anchor="start" font-family="Arial" font-size="19" fill="#1f2633" font-weight="400">Cls</text>
<text x="1100.0" y="614.2" text-anchor="start" font-family="Arial" font-size="19" fill="#1f2633" font-weight="400">Obj</text>
<text x="1100.0" y="559.2" text-anchor="start" font-family="Arial" font-size="19" fill="#1f2633" font-weight="400">RBox / Ori</text>
<text x="785.0" y="444.4" text-anchor="start" font-family="Arial" font-size="18" fill="#5c6575" font-weight="400">P4</text>
<rect x="790.0" y="455.0" width="85.0" height="40.0" rx="12.0" ry="12.0" fill="#ffd9ba" stroke="#ffd9ba" stroke-width="0" />
<text x="832.5" y="481.7" text-anchor="middle" font-family="Arial" font-size="20" fill="#1f2633" font-weight="400">
<tspan x="832.5" dy="0">CBS</tspan>
</text>
<rect x="900.0" y="455.0" width="85.0" height="40.0" rx="12.0" ry="12.0" fill="#ffd9ba" stroke="#ffd9ba" stroke-width="0" />
<text x="942.5" y="481.7" text-anchor="middle" font-family="Arial" font-size="20" fill="#1f2633" font-weight="400">
<tspan x="942.5" dy="0">CBS</tspan>
</text>
<rect x="1000.0" y="455.0" width="88.0" height="40.0" rx="12.0" ry="12.0" fill="#ebe6d8" stroke="#ebe6d8" stroke-width="0" />
<text x="1044.0" y="481.0" text-anchor="middle" font-family="Arial" font-size="18" fill="#1f2633" font-weight="400">
<tspan x="1044.0" dy="0">Conv2d</tspan>
</text>
<line x1="760.0" y1="475.0" x2="790.0" y2="475.0" stroke="#3c4557" stroke-width="3" marker-end="url(#arrow)" />
<line x1="875.0" y1="475.0" x2="900.0" y2="475.0" stroke="#3c4557" stroke-width="3" marker-end="url(#arrow)" />
<line x1="985.0" y1="475.0" x2="1000.0" y2="475.0" stroke="#3c4557" stroke-width="3" marker-end="url(#arrow)" />
<rect x="790.0" y="400.0" width="85.0" height="40.0" rx="12.0" ry="12.0" fill="#dcecb9" stroke="#dcecb9" stroke-width="0" />
<text x="832.5" y="426.7" text-anchor="middle" font-family="Arial" font-size="20" fill="#1f2633" font-weight="400">
<tspan x="832.5" dy="0">DSC</tspan>
</text>
<rect x="900.0" y="400.0" width="85.0" height="40.0" rx="12.0" ry="12.0" fill="#dcecb9" stroke="#dcecb9" stroke-width="0" />
<text x="942.5" y="426.7" text-anchor="middle" font-family="Arial" font-size="20" fill="#1f2633" font-weight="400">
<tspan x="942.5" dy="0">DSC</tspan>
</text>
<rect x="1000.0" y="400.0" width="88.0" height="40.0" rx="12.0" ry="12.0" fill="#ebe6d8" stroke="#ebe6d8" stroke-width="0" />
<text x="1044.0" y="426.0" text-anchor="middle" font-family="Arial" font-size="18" fill="#1f2633" font-weight="400">
<tspan x="1044.0" dy="0">Conv2d</tspan>
</text>
<line x1="760.0" y1="420.0" x2="790.0" y2="420.0" stroke="#3c4557" stroke-width="3" marker-end="url(#arrow)" />
<line x1="875.0" y1="420.0" x2="900.0" y2="420.0" stroke="#3c4557" stroke-width="3" marker-end="url(#arrow)" />
<line x1="985.0" y1="420.0" x2="1000.0" y2="420.0" stroke="#3c4557" stroke-width="3" marker-end="url(#arrow)" />
<rect x="790.0" y="345.0" width="85.0" height="40.0" rx="12.0" ry="12.0" fill="#ffd9ba" stroke="#ffd9ba" stroke-width="0" />
<text x="832.5" y="371.7" text-anchor="middle" font-family="Arial" font-size="20" fill="#1f2633" font-weight="400">
<tspan x="832.5" dy="0">CBS</tspan>
</text>
<rect x="900.0" y="345.0" width="85.0" height="40.0" rx="12.0" ry="12.0" fill="#ffd9ba" stroke="#ffd9ba" stroke-width="0" />
<text x="942.5" y="371.7" text-anchor="middle" font-family="Arial" font-size="20" fill="#1f2633" font-weight="400">
<tspan x="942.5" dy="0">CBS</tspan>
</text>
<rect x="1000.0" y="345.0" width="88.0" height="40.0" rx="12.0" ry="12.0" fill="#ebe6d8" stroke="#ebe6d8" stroke-width="0" />
<text x="1044.0" y="371.0" text-anchor="middle" font-family="Arial" font-size="18" fill="#1f2633" font-weight="400">
<tspan x="1044.0" dy="0">Conv2d</tspan>
</text>
<line x1="760.0" y1="365.0" x2="790.0" y2="365.0" stroke="#3c4557" stroke-width="3" marker-end="url(#arrow)" />
<line x1="875.0" y1="365.0" x2="900.0" y2="365.0" stroke="#3c4557" stroke-width="3" marker-end="url(#arrow)" />
<line x1="985.0" y1="365.0" x2="1000.0" y2="365.0" stroke="#3c4557" stroke-width="3" marker-end="url(#arrow)" />
<text x="1100.0" y="474.2" text-anchor="start" font-family="Arial" font-size="19" fill="#1f2633" font-weight="400">Cls</text>
<text x="1100.0" y="419.2" text-anchor="start" font-family="Arial" font-size="19" fill="#1f2633" font-weight="400">Obj</text>
<text x="1100.0" y="364.2" text-anchor="start" font-family="Arial" font-size="19" fill="#1f2633" font-weight="400">RBox / Ori</text>
<text x="785.0" y="274.4" text-anchor="start" font-family="Arial" font-size="18" fill="#5c6575" font-weight="400">P5</text>
<rect x="790.0" y="285.0" width="85.0" height="40.0" rx="12.0" ry="12.0" fill="#ffd9ba" stroke="#ffd9ba" stroke-width="0" />
<text x="832.5" y="311.7" text-anchor="middle" font-family="Arial" font-size="20" fill="#1f2633" font-weight="400">
<tspan x="832.5" dy="0">CBS</tspan>
</text>
<rect x="900.0" y="285.0" width="85.0" height="40.0" rx="12.0" ry="12.0" fill="#ffd9ba" stroke="#ffd9ba" stroke-width="0" />
<text x="942.5" y="311.7" text-anchor="middle" font-family="Arial" font-size="20" fill="#1f2633" font-weight="400">
<tspan x="942.5" dy="0">CBS</tspan>
</text>
<rect x="1000.0" y="285.0" width="88.0" height="40.0" rx="12.0" ry="12.0" fill="#ebe6d8" stroke="#ebe6d8" stroke-width="0" />
<text x="1044.0" y="311.0" text-anchor="middle" font-family="Arial" font-size="18" fill="#1f2633" font-weight="400">
<tspan x="1044.0" dy="0">Conv2d</tspan>
</text>
<line x1="760.0" y1="305.0" x2="790.0" y2="305.0" stroke="#3c4557" stroke-width="3" marker-end="url(#arrow)" />
<line x1="875.0" y1="305.0" x2="900.0" y2="305.0" stroke="#3c4557" stroke-width="3" marker-end="url(#arrow)" />
<line x1="985.0" y1="305.0" x2="1000.0" y2="305.0" stroke="#3c4557" stroke-width="3" marker-end="url(#arrow)" />
<rect x="790.0" y="230.0" width="85.0" height="40.0" rx="12.0" ry="12.0" fill="#dcecb9" stroke="#dcecb9" stroke-width="0" />
<text x="832.5" y="256.7" text-anchor="middle" font-family="Arial" font-size="20" fill="#1f2633" font-weight="400">
<tspan x="832.5" dy="0">DSC</tspan>
</text>
<rect x="900.0" y="230.0" width="85.0" height="40.0" rx="12.0" ry="12.0" fill="#dcecb9" stroke="#dcecb9" stroke-width="0" />
<text x="942.5" y="256.7" text-anchor="middle" font-family="Arial" font-size="20" fill="#1f2633" font-weight="400">
<tspan x="942.5" dy="0">DSC</tspan>
</text>
<rect x="1000.0" y="230.0" width="88.0" height="40.0" rx="12.0" ry="12.0" fill="#ebe6d8" stroke="#ebe6d8" stroke-width="0" />
<text x="1044.0" y="256.0" text-anchor="middle" font-family="Arial" font-size="18" fill="#1f2633" font-weight="400">
<tspan x="1044.0" dy="0">Conv2d</tspan>
</text>
<line x1="760.0" y1="250.0" x2="790.0" y2="250.0" stroke="#3c4557" stroke-width="3" marker-end="url(#arrow)" />
<line x1="875.0" y1="250.0" x2="900.0" y2="250.0" stroke="#3c4557" stroke-width="3" marker-end="url(#arrow)" />
<line x1="985.0" y1="250.0" x2="1000.0" y2="250.0" stroke="#3c4557" stroke-width="3" marker-end="url(#arrow)" />
<rect x="790.0" y="175.0" width="85.0" height="40.0" rx="12.0" ry="12.0" fill="#ffd9ba" stroke="#ffd9ba" stroke-width="0" />
<text x="832.5" y="201.7" text-anchor="middle" font-family="Arial" font-size="20" fill="#1f2633" font-weight="400">
<tspan x="832.5" dy="0">CBS</tspan>
</text>
<rect x="900.0" y="175.0" width="85.0" height="40.0" rx="12.0" ry="12.0" fill="#ffd9ba" stroke="#ffd9ba" stroke-width="0" />
<text x="942.5" y="201.7" text-anchor="middle" font-family="Arial" font-size="20" fill="#1f2633" font-weight="400">
<tspan x="942.5" dy="0">CBS</tspan>
</text>
<rect x="1000.0" y="175.0" width="88.0" height="40.0" rx="12.0" ry="12.0" fill="#ebe6d8" stroke="#ebe6d8" stroke-width="0" />
<text x="1044.0" y="201.0" text-anchor="middle" font-family="Arial" font-size="18" fill="#1f2633" font-weight="400">
<tspan x="1044.0" dy="0">Conv2d</tspan>
</text>
<line x1="760.0" y1="195.0" x2="790.0" y2="195.0" stroke="#3c4557" stroke-width="3" marker-end="url(#arrow)" />
<line x1="875.0" y1="195.0" x2="900.0" y2="195.0" stroke="#3c4557" stroke-width="3" marker-end="url(#arrow)" />
<line x1="985.0" y1="195.0" x2="1000.0" y2="195.0" stroke="#3c4557" stroke-width="3" marker-end="url(#arrow)" />
<text x="1100.0" y="304.2" text-anchor="start" font-family="Arial" font-size="19" fill="#1f2633" font-weight="400">Cls</text>
<text x="1100.0" y="249.2" text-anchor="start" font-family="Arial" font-size="19" fill="#1f2633" font-weight="400">Obj</text>
<text x="1100.0" y="194.2" text-anchor="start" font-family="Arial" font-size="19" fill="#1f2633" font-weight="400">RBox / Ori</text>
<rect x="1090.0" y="140.0" width="690.0" height="450.0" rx="26.0" ry="26.0" fill="#fff6d9" stroke="#ead69c" stroke-width="3" />
<rect x="1090.0" y="640.0" width="690.0" height="360.0" rx="26.0" ry="26.0" fill="#ffeadd" stroke="#e9c7ab" stroke-width="3" />
<text x="1435.0" y="174.8" text-anchor="middle" font-family="Arial" font-size="31" fill="#1f2633" font-weight="700">Feature Complementary Mapping Module (FCM)</text>
<text x="1435.0" y="674.8" text-anchor="middle" font-family="Arial" font-size="31" fill="#1f2633" font-weight="700">Multi-Kernel Perception Unit (MKP)</text>
<rect x="1170.0" y="320.0" width="115.0" height="62.0" rx="12.0" ry="12.0" fill="#ffd6b8" stroke="#ffd6b8" stroke-width="0" />
<text x="1227.5" y="345.3" text-anchor="middle" font-family="Arial" font-size="22" fill="#1f2633" font-weight="400">
<tspan x="1227.5" dy="0">Input</tspan>
<tspan x="1227.5" dy="26">Features</tspan>
</text>
<text x="1210.0" y="412.8" text-anchor="start" font-family="Arial" font-size="21" fill="#1f2633" font-weight="400">Split</text>
<line x1="1285.0" y1="350.0" x2="1345.0" y2="260.0" stroke="#3c4557" stroke-width="3" marker-end="url(#arrow)" />
<line x1="1285.0" y1="350.0" x2="1345.0" y2="455.0" stroke="#3c4557" stroke-width="3" marker-end="url(#arrow)" />
<rect x="1345.0" y="220.0" width="140.0" height="62.0" rx="12.0" ry="12.0" fill="#f7f7cf" stroke="#cbbf91" stroke-width="2" />
<text x="1415.0" y="245.3" text-anchor="middle" font-family="Arial" font-size="22" fill="#1f2633" font-weight="400">
<tspan x="1415.0" dy="0">Position</tspan>
<tspan x="1415.0" dy="26">Embedding</tspan>
</text>
<rect x="1345.0" y="425.0" width="140.0" height="62.0" rx="12.0" ry="12.0" fill="#dff1cf" stroke="#a7c58b" stroke-width="2" />
<text x="1415.0" y="450.3" text-anchor="middle" font-family="Arial" font-size="22" fill="#1f2633" font-weight="400">
<tspan x="1415.0" dy="0">Semantic</tspan>
<tspan x="1415.0" dy="26">Enrichment</tspan>
</text>
<rect x="1515.0" y="305.0" width="145.0" height="50.0" rx="12.0" ry="12.0" fill="#ffddb9" stroke="#ffddb9" stroke-width="0" />
<text x="1587.5" y="336.7" text-anchor="middle" font-family="Arial" font-size="20" fill="#1f2633" font-weight="400">
<tspan x="1587.5" dy="0">Channel Guidance</tspan>
</text>
<rect x="1675.0" y="305.0" width="90.0" height="50.0" rx="12.0" ry="12.0" fill="#ffe4c7" stroke="#ffe4c7" stroke-width="0" />
<text x="1720.0" y="325.0" text-anchor="middle" font-family="Arial" font-size="18" fill="#1f2633" font-weight="400">
<tspan x="1720.0" dy="0">Spatial</tspan>
<tspan x="1720.0" dy="22">Aggregation</tspan>
</text>
<rect x="1505.0" y="435.0" width="170.0" height="50.0" rx="12.0" ry="12.0" fill="#f1c488" stroke="#f1c488" stroke-width="0" />
<text x="1590.0" y="466.3" text-anchor="middle" font-family="Arial" font-size="19" fill="#1f2633" font-weight="400">
<tspan x="1590.0" dy="0">Complementary Mapping</tspan>
</text>
<line x1="1485.0" y1="250.0" x2="1515.0" y2="330.0" stroke="#3c4557" stroke-width="3" marker-end="url(#arrow)" />
<line x1="1485.0" y1="456.0" x2="1515.0" y2="330.0" stroke="#3c4557" stroke-width="3" marker-end="url(#arrow)" />
<line x1="1660.0" y1="330.0" x2="1675.0" y2="330.0" stroke="#3c4557" stroke-width="3" marker-end="url(#arrow)" />
<line x1="1588.0" y1="355.0" x2="1588.0" y2="435.0" stroke="#3c4557" stroke-width="3" marker-end="url(#arrow)" />
<line x1="1675.0" y1="460.0" x2="1728.0" y2="460.0" stroke="#3c4557" stroke-width="3" marker-end="url(#arrow)" />
<circle cx="1725.0" cy="330.0" r="16.0" fill="white" stroke="#62708b" stroke-width="2" />
<text x="1725.0" y="335.2" text-anchor="middle" font-family="Arial" font-size="24" fill="#62708b" font-weight="700">+</text>
<line x1="1741.0" y1="330.0" x2="1770.0" y2="330.0" stroke="#3c4557" stroke-width="3" marker-end="url(#arrow)" />
<rect x="1778.0" y="287.0" width="18.0" height="86.0" rx="4.0" ry="4.0" fill="#d9842b" stroke="#d9842b" stroke-width="1" />
<rect x="1792.0" y="291.0" width="18.0" height="86.0" rx="4.0" ry="4.0" fill="#d9842b" stroke="#d9842b" stroke-width="1" />
<rect x="1806.0" y="295.0" width="18.0" height="86.0" rx="4.0" ry="4.0" fill="#d9842b" stroke="#d9842b" stroke-width="1" />
<rect x="1820.0" y="299.0" width="18.0" height="86.0" rx="4.0" ry="4.0" fill="#d9842b" stroke="#d9842b" stroke-width="1" />
<text x="1814.0" y="408.8" text-anchor="end" font-family="Arial" font-size="21" fill="#1f2633" font-weight="400">Output Features</text>
<text x="1590.0" y="211.8" text-anchor="start" font-family="Arial" font-size="21" fill="#1f2633" font-weight="400">S: Sigmoid</text>
<text x="1590.0" y="243.2" text-anchor="start" font-family="Arial" font-size="19" fill="#1f2633" font-weight="400">AvgPool: Adaptive average pooling</text>
<text x="1590.0" y="273.2" text-anchor="start" font-family="Arial" font-size="19" fill="#1f2633" font-weight="400">PWConv: Pointwise convolution</text>
<text x="1500.0" y="252.6" text-anchor="start" font-family="Arial" font-size="22" fill="#1f2633" font-weight="400">w1</text>
<text x="1596.0" y="429.6" text-anchor="start" font-family="Arial" font-size="22" fill="#1f2633" font-weight="400">w2</text>
<circle cx="1512.0" cy="286.0" r="14.0" fill="#ffd2df" stroke="#ffd2df" stroke-width="1" />
<text x="1512.0" y="287.4" text-anchor="middle" font-family="Arial" font-size="18" fill="#8a4760" font-weight="400">S</text>
<circle cx="1676.0" cy="438.0" r="14.0" fill="#ffd2df" stroke="#ffd2df" stroke-width="1" />
<text x="1676.0" y="439.4" text-anchor="middle" font-family="Arial" font-size="18" fill="#8a4760" font-weight="400">S</text>
<text x="1175.0" y="837.2" text-anchor="start" font-family="Arial" font-size="34" fill="#1f2633" font-weight="700">X</text>
<rect x="1245.0" y="760.0" width="72.0" height="140.0" rx="12.0" ry="12.0" fill="#dfe8fb" stroke="#9fb2d8" stroke-width="2" />
<text x="1281.0" y="837.7" text-anchor="middle" font-family="Arial" font-size="23" fill="#1f2633" font-weight="400">
<tspan x="1281.0" dy="0">DWConv</tspan>
</text>
<rect x="1350.0" y="760.0" width="72.0" height="140.0" rx="12.0" ry="12.0" fill="#dfe8fb" stroke="#9fb2d8" stroke-width="2" />
<text x="1386.0" y="837.7" text-anchor="middle" font-family="Arial" font-size="23" fill="#1f2633" font-weight="400">
<tspan x="1386.0" dy="0">PWConv</tspan>
</text>
<rect x="1455.0" y="760.0" width="72.0" height="140.0" rx="12.0" ry="12.0" fill="#dfe8fb" stroke="#9fb2d8" stroke-width="2" />
<text x="1491.0" y="837.7" text-anchor="middle" font-family="Arial" font-size="23" fill="#1f2633" font-weight="400">
<tspan x="1491.0" dy="0">DWConv</tspan>
</text>
<rect x="1560.0" y="760.0" width="72.0" height="140.0" rx="12.0" ry="12.0" fill="#dfe8fb" stroke="#9fb2d8" stroke-width="2" />
<text x="1596.0" y="837.7" text-anchor="middle" font-family="Arial" font-size="23" fill="#1f2633" font-weight="400">
<tspan x="1596.0" dy="0">PWConv</tspan>
</text>
<rect x="1665.0" y="760.0" width="72.0" height="140.0" rx="12.0" ry="12.0" fill="#dfe8fb" stroke="#9fb2d8" stroke-width="2" />
<text x="1701.0" y="837.7" text-anchor="middle" font-family="Arial" font-size="23" fill="#1f2633" font-weight="400">
<tspan x="1701.0" dy="0">DWConv</tspan>
</text>
<rect x="1770.0" y="760.0" width="72.0" height="140.0" rx="12.0" ry="12.0" fill="#dfe8fb" stroke="#9fb2d8" stroke-width="2" />
<text x="1806.0" y="837.7" text-anchor="middle" font-family="Arial" font-size="23" fill="#1f2633" font-weight="400">
<tspan x="1806.0" dy="0">PWConv</tspan>
</text>
<line x1="1200.0" y1="830.0" x2="1245.0" y2="830.0" stroke="#3c4557" stroke-width="3" marker-end="url(#arrow)" />
<line x1="1317.0" y1="830.0" x2="1350.0" y2="830.0" stroke="#3c4557" stroke-width="3" marker-end="url(#arrow)" />
<line x1="1422.0" y1="830.0" x2="1455.0" y2="830.0" stroke="#3c4557" stroke-width="3" marker-end="url(#arrow)" />
<line x1="1527.0" y1="830.0" x2="1560.0" y2="830.0" stroke="#3c4557" stroke-width="3" marker-end="url(#arrow)" />
<line x1="1632.0" y1="830.0" x2="1665.0" y2="830.0" stroke="#3c4557" stroke-width="3" marker-end="url(#arrow)" />
<line x1="1737.0" y1="830.0" x2="1770.0" y2="830.0" stroke="#3c4557" stroke-width="3" marker-end="url(#arrow)" />
<line x1="1842.0" y1="830.0" x2="1832.0" y2="830.0" stroke="#3c4557" stroke-width="3" marker-end="url(#arrow)" />
<text x="1840.0" y="837.2" text-anchor="start" font-family="Arial" font-size="34" fill="#1f2633" font-weight="700">X'</text>
<rect x="1261.0" y="928.0" width="68.0" height="64.0" rx="8.0" ry="8.0" fill="#87aefb" stroke="#87aefb" stroke-width="1" />
<text x="1295.0" y="1010.2" text-anchor="middle" font-family="Arial" font-size="19" fill="#1f2633" font-weight="400">k=3</text>
<rect x="1471.0" y="928.0" width="68.0" height="64.0" rx="8.0" ry="8.0" fill="#6cc7d6" stroke="#6cc7d6" stroke-width="1" />
<text x="1505.0" y="1010.2" text-anchor="middle" font-family="Arial" font-size="19" fill="#1f2633" font-weight="400">k=5</text>
<rect x="1681.0" y="928.0" width="68.0" height="64.0" rx="8.0" ry="8.0" fill="#ffb86f" stroke="#ffb86f" stroke-width="1" />
<text x="1715.0" y="1010.2" text-anchor="middle" font-family="Arial" font-size="19" fill="#1f2633" font-weight="400">k=7</text>
<text x="205.0" y="574.4" text-anchor="start" font-family="Arial" font-size="18" fill="#6a5acd" font-weight="400">FCM plug-ins</text>
<text x="205.0" y="499.4" text-anchor="start" font-family="Arial" font-size="18" fill="#6a5acd" font-weight="400">MKP insertion</text>
<line x1="205.0" y1="560.0" x2="1090.0" y2="260.0" stroke="#6a5acd" stroke-width="3" stroke-dasharray="10 8" />
<line x1="205.0" y1="495.0" x2="1090.0" y2="805.0" stroke="#6a5acd" stroke-width="3" stroke-dasharray="10 8" />
<text x="950.0" y="1102.4" text-anchor="middle" font-family="Arial" font-size="18" fill="#5c6575" font-weight="400">Draft for paper revision. Recommended final usage: one main architecture figure plus detachable FCM/MKP subfigures.</text>
</svg>